<svg id="Layer_4" data-name="Layer 4" xmlns="http://www.w3.org/2000/svg" xmlns:xlink="http://www.w3.org/1999/xlink" viewBox="0 0 680.83 182.56"><defs><style>.cls-1,.cls-2{stroke-miterlimit:10;}.cls-1{stroke-width:4px;fill:url(#linear-gradient);stroke:url(#linear-gradient-2);}.cls-2{stroke-width:2px;fill:url(#linear-gradient-3);stroke:url(#linear-gradient-4);}.cls-3{fill:#fff;}.cls-4{fill:url(#linear-gradient-5);}.cls-5{fill:#040404;}.cls-6{fill:url(#linear-gradient-6);}.cls-7{fill:url(#linear-gradient-7);}.cls-8{fill:url(#linear-gradient-8);}</style><linearGradient id="linear-gradient" x1="1127.02" y1="449.72" x2="1639.08" y2="449.72" gradientUnits="userSpaceOnUse"><stop offset="0" stop-color="#666"/><stop offset="0.06" stop-color="#5e5e60"/><stop offset="0.28" stop-color="#43444a"/><stop offset="0.51" stop-color="#30323b"/><stop offset="0.75" stop-color="#252732"/><stop offset="1" stop-color="#21232f"/></linearGradient><linearGradient id="linear-gradient-2" x1="1123.32" y1="449.72" x2="1641.08" y2="449.72" gradientUnits="userSpaceOnUse"><stop offset="0" stop-color="#f1cb10"/><stop offset="0.22" stop-color="#f0c814"/><stop offset="0.46" stop-color="#edc021"/><stop offset="0.71" stop-color="#e9b237"/><stop offset="0.96" stop-color="#e39e55"/><stop offset="1" stop-color="#e29b5a"/></linearGradient><linearGradient id="linear-gradient-3" x1="1065.55" y1="507.94" x2="1492.12" y2="507.94" xlink:href="#linear-gradient"/><linearGradient id="linear-gradient-4" x1="1065.38" y1="507.94" x2="1494.6" y2="507.94" xlink:href="#linear-gradient-2"/><linearGradient id="linear-gradient-5" x1="1039.63" y1="474.16" x2="1066.25" y2="474.16" gradientUnits="userSpaceOnUse"><stop offset="0" stop-color="#eba24b"/><stop offset="1" stop-color="#ebd04b"/></linearGradient><linearGradient id="linear-gradient-6" x1="953.24" y1="456.02" x2="1082.31" y2="456.02" gradientTransform="translate(64.57 -79.4) rotate(3.59)" xlink:href="#linear-gradient-5"/><linearGradient id="linear-gradient-7" x1="960.25" y1="439.45" x2="1142.81" y2="439.45" xlink:href="#linear-gradient-5"/><linearGradient id="linear-gradient-8" x1="1006.92" y1="431.66" x2="1098.94" y2="431.66" xlink:href="#linear-gradient-5"/></defs><path class="cls-1" d="M1137.49,411.25A90.32,90.32,0,0,1,1127,488.19h512.06V411.25Z" transform="translate(-960.25 -348.17)"/><path class="cls-2" d="M1126.37,487.57a90.23,90.23,0,0,1-60.82,40.74H1450l42.08-40.74Z" transform="translate(-960.25 -348.17)"/><path class="cls-3" d="M1176,435.87h4.3v30.65H1176Zm3.37,17.2,13.54-17.2h5.29l-19.46,23.65Zm5.1-2.91,3.4-3.14,11.61,19.5h-5.27Z" transform="translate(-960.25 -348.17)"/><path class="cls-3" d="M1203.77,465.16a6.27,6.27,0,0,1-2-5.09,6.15,6.15,0,0,1,1.84-4.87q1.83-1.62,5.54-1.62h6.22l.29,3.45h-6.49a3.68,3.68,0,0,0-2.52.75,2.94,2.94,0,0,0-.83,2.29,2.85,2.85,0,0,0,1.11,2.47,5.74,5.74,0,0,0,3.36.8,9.77,9.77,0,0,0,3.68-.53,1.73,1.73,0,0,0,1.21-1.64l.44,3.07a5,5,0,0,1-1.4,1.46,6.06,6.06,0,0,1-1.93.85,9.77,9.77,0,0,1-2.46.29Q1205.78,466.84,1203.77,465.16Zm11.41-12.51a4.59,4.59,0,0,0-1.15-3.34,4.3,4.3,0,0,0-3.26-1.19,8.3,8.3,0,0,0-2.56.4,7.57,7.57,0,0,0-2.22,1.11l-3.14-2.15a8.24,8.24,0,0,1,3.27-2.32,11.79,11.79,0,0,1,4.53-.84,10.44,10.44,0,0,1,4.66,1,6.73,6.73,0,0,1,3,2.78,9,9,0,0,1,1,4.4v14.06h-4.09Z" transform="translate(-960.25 -348.17)"/><path class="cls-3" d="M1225.8,435.87h4.3v4.3h-4.3Zm0,8.77h4.3v21.88h-4.3Z" transform="translate(-960.25 -348.17)"/><path class="cls-3" d="M1244.44,435.87h4.3v30.65h-4.3Zm2.11,0h17.18V440h-17.18Zm0,13.66h14.86v4.09h-14.86Z" transform="translate(-960.25 -348.17)"/><path class="cls-3" d="M1269.1,465.16a6.27,6.27,0,0,1-2-5.09,6.18,6.18,0,0,1,1.83-4.87c1.23-1.08,3.07-1.62,5.55-1.62h6.22L1281,457h-6.49a3.65,3.65,0,0,0-2.52.75,2.91,2.91,0,0,0-.83,2.29,2.87,2.87,0,0,0,1.1,2.47,5.79,5.79,0,0,0,3.37.8,9.67,9.67,0,0,0,3.67-.53,1.74,1.74,0,0,0,1.22-1.64l.44,3.07a5.14,5.14,0,0,1-1.4,1.46,6.16,6.16,0,0,1-1.93.85,9.79,9.79,0,0,1-2.47.29C1272.45,466.84,1270.44,466.28,1269.1,465.16Zm11.41-12.51a4.64,4.64,0,0,0-1.15-3.34,4.3,4.3,0,0,0-3.26-1.19,8.3,8.3,0,0,0-2.56.4,7.45,7.45,0,0,0-2.22,1.11l-3.15-2.15a8.27,8.27,0,0,1,3.28-2.32,11.78,11.78,0,0,1,4.52-.84,10.38,10.38,0,0,1,4.66,1,6.62,6.62,0,0,1,2.95,2.78,8.92,8.92,0,0,1,1,4.4v14.06h-4.09Z" transform="translate(-960.25 -348.17)"/><path class="cls-3" d="M1294,465.86a6.56,6.56,0,0,1-2.59-3.05,11.84,11.84,0,0,1-.88-4.81v-4.82a12.23,12.23,0,0,1,.86-4.83,6.6,6.6,0,0,1,2.52-3.05,7.34,7.34,0,0,1,4-1,6.61,6.61,0,0,1,3.56,1,7.49,7.49,0,0,1,2.6,2.85l-.44,4.47a5.17,5.17,0,0,0-.51-2.39,3.42,3.42,0,0,0-1.46-1.5,4.8,4.8,0,0,0-2.33-.52,4.15,4.15,0,0,0-3.3,1.33,5.45,5.45,0,0,0-1.17,3.73V458a5.3,5.3,0,0,0,1.17,3.68,4.2,4.2,0,0,0,3.3,1.3,4.69,4.69,0,0,0,2.33-.54,3.53,3.53,0,0,0,1.46-1.55,5.3,5.3,0,0,0,.51-2.42l.29,4.61a6.15,6.15,0,0,1-2.14,2.72,6,6,0,0,1-3.65,1.1A7.71,7.71,0,0,1,1294,465.86Zm.08,8.64a7,7,0,0,1-3-2.58l2.9-2.64a6.12,6.12,0,0,0,2,1.79,5,5,0,0,0,2.45.64,5.17,5.17,0,0,0,3.82-1.36,5.23,5.23,0,0,0,1.35-3.85V444.64h4.3v21.23a11.11,11.11,0,0,1-1.11,5.16,7.57,7.57,0,0,1-3.21,3.27,10.79,10.79,0,0,1-5.08,1.12A10.28,10.28,0,0,1,1294.05,474.5Z" transform="translate(-960.25 -348.17)"/><path class="cls-3" d="M1315.35,465.16a6.27,6.27,0,0,1-2-5.09,6.18,6.18,0,0,1,1.83-4.87c1.23-1.08,3.07-1.62,5.55-1.62H1327l.29,3.45h-6.49a3.65,3.65,0,0,0-2.52.75,2.91,2.91,0,0,0-.83,2.29,2.85,2.85,0,0,0,1.1,2.47,5.79,5.79,0,0,0,3.37.8,9.67,9.67,0,0,0,3.67-.53,1.74,1.74,0,0,0,1.22-1.64l.44,3.07a5.14,5.14,0,0,1-1.4,1.46,6.16,6.16,0,0,1-1.93.85,9.85,9.85,0,0,1-2.47.29C1318.7,466.84,1316.69,466.28,1315.35,465.16Zm11.41-12.51a4.64,4.64,0,0,0-1.15-3.34,4.31,4.31,0,0,0-3.26-1.19,8.25,8.25,0,0,0-2.56.4,7.63,7.63,0,0,0-2.23,1.11l-3.14-2.15a8.27,8.27,0,0,1,3.28-2.32,11.78,11.78,0,0,1,4.52-.84,10.38,10.38,0,0,1,4.66,1,6.68,6.68,0,0,1,2.95,2.78,8.92,8.92,0,0,1,1,4.4v14.06h-4.09Z" transform="translate(-960.25 -348.17)"/><path class="cls-3" d="M1337.38,444.64h4.3v21.88h-4.3Zm13.28,8.62a5,5,0,0,0-1.2-3.58,4.41,4.41,0,0,0-3.37-1.27,4.47,4.47,0,0,0-3.26,1.12,4.15,4.15,0,0,0-1.15,3.14l-.44-4.22a7.69,7.69,0,0,1,2.64-3.05,6.44,6.44,0,0,1,3.62-1.08,6.8,6.8,0,0,1,5.51,2.33,10,10,0,0,1,2,6.59v13.28h-4.3Z" transform="translate(-960.25 -348.17)"/><path class="cls-3" d="M1167.76,518a6.24,6.24,0,0,1-2.44-2.62,8.49,8.49,0,0,1-.87-3.93V506a8.49,8.49,0,0,1,.87-3.93,6.27,6.27,0,0,1,2.44-2.63,7.13,7.13,0,0,1,3.67-.93,6.91,6.91,0,0,1,3.17.74,6.66,6.66,0,0,1,2.42,2.09,7.85,7.85,0,0,1,1.32,3.13h-2.88a4.55,4.55,0,0,0-.88-1.67,4.14,4.14,0,0,0-1.44-1.14,3.89,3.89,0,0,0-1.71-.4,3.79,3.79,0,0,0-3.59,2.25,5.77,5.77,0,0,0-.51,2.49v5.51a5.72,5.72,0,0,0,.51,2.48,3.89,3.89,0,0,0,1.43,1.66,4,4,0,0,0,2.16.59,4.05,4.05,0,0,0,3.15-1.48,4.37,4.37,0,0,0,.88-1.73h2.88a7.72,7.72,0,0,1-1.33,3.13,6.7,6.7,0,0,1-5.58,2.82A7.12,7.12,0,0,1,1167.76,518Z" transform="translate(-960.25 -348.17)"/><path class="cls-3" d="M1184.53,518.22a5,5,0,0,1-2.14-2.19,7.45,7.45,0,0,1-.74-3.48v-1.61a8.48,8.48,0,0,1,.71-3.63,5.05,5.05,0,0,1,2.06-2.29,6.32,6.32,0,0,1,3.26-.79,5.17,5.17,0,0,1,3.06.9,5.58,5.58,0,0,1,1.94,2.59,11.23,11.23,0,0,1,.67,4.07v.94h-9.66v-2.26h7a4.81,4.81,0,0,0-.9-2.73,2.54,2.54,0,0,0-2.09-1,3.06,3.06,0,0,0-2.48,1.05,4.52,4.52,0,0,0-.87,3v1.82a3.77,3.77,0,0,0,.93,2.74,3.61,3.61,0,0,0,2.67.95,4.41,4.41,0,0,0,1.69-.35,5.1,5.1,0,0,0,1.51-1l1.84,1.85a7.85,7.85,0,0,1-2.38,1.58,6.82,6.82,0,0,1-2.66.55A7.14,7.14,0,0,1,1184.53,518.22Z" transform="translate(-960.25 -348.17)"/><path class="cls-3" d="M1200,515.06a1.28,1.28,0,0,0,.23.81.77.77,0,0,0,.64.28h1.33v2.68h-1.66a3.1,3.1,0,0,1-2.47-1,4.05,4.05,0,0,1-.88-2.8V498.7H1200Z" transform="translate(-960.25 -348.17)"/><path class="cls-3" d="M1207.86,518.22a5.05,5.05,0,0,1-2.15-2.19,7.58,7.58,0,0,1-.73-3.48v-1.61a8.34,8.34,0,0,1,.71-3.63,5.05,5.05,0,0,1,2.06-2.29,6.31,6.31,0,0,1,3.25-.79,5.18,5.18,0,0,1,3.07.9,5.65,5.65,0,0,1,1.94,2.59,11.24,11.24,0,0,1,.66,4.07v.94H1207v-2.26h7a4.81,4.81,0,0,0-.9-2.73,2.55,2.55,0,0,0-2.1-1,3,3,0,0,0-2.47,1.05,4.52,4.52,0,0,0-.88,3v1.82a3.78,3.78,0,0,0,.94,2.74,3.59,3.59,0,0,0,2.66.95,4.46,4.46,0,0,0,1.7-.35,4.93,4.93,0,0,0,1.5-1l1.85,1.85a8,8,0,0,1-2.38,1.58,6.86,6.86,0,0,1-2.67.55A7.13,7.13,0,0,1,1207.86,518.22Z" transform="translate(-960.25 -348.17)"/><path class="cls-3" d="M1220.54,498.7h2.81v20.06h-2.81Zm4.08,19.62a3.71,3.71,0,0,1-1.46-1.81l.19-3a3.44,3.44,0,0,0,.33,1.57,2.29,2.29,0,0,0,1,1,3.15,3.15,0,0,0,1.53.35,2.78,2.78,0,0,0,2.16-.85,3.47,3.47,0,0,0,.76-2.4v-3.1a3.57,3.57,0,0,0-.76-2.44,2.72,2.72,0,0,0-2.16-.87,3.26,3.26,0,0,0-1.53.33,2.25,2.25,0,0,0-1,1,3.33,3.33,0,0,0-.33,1.54l-.29-2.76a5.13,5.13,0,0,1,1.7-1.94,4.23,4.23,0,0,1,2.33-.68,4.82,4.82,0,0,1,2.6.68,4.33,4.33,0,0,1,1.65,2,7.86,7.86,0,0,1,.57,3.16v3.11a7.69,7.69,0,0,1-.58,3.12,4.31,4.31,0,0,1-1.7,2,5,5,0,0,1-2.68.68A4.18,4.18,0,0,1,1224.62,518.32Z" transform="translate(-960.25 -348.17)"/><path class="cls-3" d="M1238.59,518.72a9,9,0,0,1-2.08-.75,8.25,8.25,0,0,1-1.78-1.24l1.67-2.06a9.46,9.46,0,0,0,2.31,1.33,6.3,6.3,0,0,0,2.26.44,4.75,4.75,0,0,0,2.5-.52,1.7,1.7,0,0,0,.84-1.55,1.19,1.19,0,0,0-.46-1,2.58,2.58,0,0,0-1.13-.47c-.45-.07-1.08-.15-1.9-.21h-.24l-.23,0h-.22a10.72,10.72,0,0,1-2.36-.41,3.22,3.22,0,0,1-1.61-1.11,3.67,3.67,0,0,1-.64-2.33,4.75,4.75,0,0,1,.62-2.52,3.75,3.75,0,0,1,1.85-1.52,8.27,8.27,0,0,1,3.08-.5,10.54,10.54,0,0,1,2.13.21,9.36,9.36,0,0,1,3.71,1.64l-1.69,2.06a9.64,9.64,0,0,0-2.12-1,6.4,6.4,0,0,0-2-.34,3.84,3.84,0,0,0-2.16.49,1.63,1.63,0,0,0-.71,1.46,1,1,0,0,0,.4.87,2.27,2.27,0,0,0,1,.39c.41.06,1,.12,1.77.17h.44l.08,0a12.08,12.08,0,0,1,2.56.4,3.44,3.44,0,0,1,1.77,1.2,4.06,4.06,0,0,1,.72,2.59,4.62,4.62,0,0,1-.66,2.56,4,4,0,0,1-2,1.52,9.39,9.39,0,0,1-3.34.51A11.23,11.23,0,0,1,1238.59,518.72Z" transform="translate(-960.25 -348.17)"/><path class="cls-3" d="M979.5,399.42l.58-1.13,8.6,4.42-.6,1.18-6.45-3.32.41.14,3.78,4.62-.43.84-5.84-.32-.47-.32,6.45,3.32-.61,1.17-8.6-4.42.58-1.13,7,.39Z" transform="translate(-960.25 -348.17)"/><path class="cls-3" d="M983.36,393.27l.66-1,10,2.58-.84,1.2-7.94-2.24,4.89,6.65-.83,1.21Zm4.06,5.14,2.89-4.18,1.07.73-2.9,4.19Z" transform="translate(-960.25 -348.17)"/><path class="cls-3" d="M987.56,387.53l.82-.91,8.73,1.45,0,.24-5.71-5.1.9-1,7.21,6.44-.83.92-8.64-1.39,0-.23,5.62,5-.89,1Z" transform="translate(-960.25 -348.17)"/><path class="cls-3" d="M1001.87,386a3,3,0,0,1-1.72-.17,4,4,0,0,1-1.57-1.14l-1.75-2a4,4,0,0,1-.94-1.7,3,3,0,0,1,.05-1.73,3.31,3.31,0,0,1,1-1.5,3.2,3.2,0,0,1,2.92-.76,3.82,3.82,0,0,1,1.48.71l-1,.92a2.12,2.12,0,0,0-1.73-.28,1.81,1.81,0,0,0-.75.4,1.87,1.87,0,0,0-.59.9,1.91,1.91,0,0,0,0,1.06,2.92,2.92,0,0,0,.61,1.07l1.75,2a2.76,2.76,0,0,0,1,.73,1.76,1.76,0,0,0,1,.15,2,2,0,0,0,1-.47,2,2,0,0,0,.5-.69,2,2,0,0,0,.17-.85,2.17,2.17,0,0,0-.24-.91l1-.92a3.65,3.65,0,0,1,.52,1.56,3.23,3.23,0,0,1-1.12,2.8A3.4,3.4,0,0,1,1001.87,386Z" transform="translate(-960.25 -348.17)"/><path class="cls-3" d="M1001.72,373.94l1.12-.78,5.51,8-1.12.77Zm3.13,3,4.41-3L1010,375l-4.42,3Zm1.39-6.15,1.12-.78,5.51,8-1.12.77Z" transform="translate(-960.25 -348.17)"/><path class="cls-3" d="M1010.13,368.38l1.2-.64,4.56,8.53-1.2.64Zm.58-.31,4.91-2.62.6,1.14-4.9,2.62Zm2,3.72,4.25-2.27.61,1.14-4.26,2.27Zm1.95,3.67,4.9-2.61.61,1.13-4.9,2.62Z" transform="translate(-960.25 -348.17)"/><path class="cls-3" d="M1023.17,372.67a5.13,5.13,0,0,1-1.23.06,4.93,4.93,0,0,1-1.19-.24l.4-1.28a3.77,3.77,0,0,0,1.4.22,4.14,4.14,0,0,0,1.43-.31,2.91,2.91,0,0,0,1.37-1,1.26,1.26,0,0,0,.13-1.23h0a1.2,1.2,0,0,0-.55-.65,1.48,1.48,0,0,0-.79-.15,6.65,6.65,0,0,0-1.09.15H1023l-.1,0a11.24,11.24,0,0,1-1.61.24,2.3,2.3,0,0,1-1.25-.33,2.52,2.52,0,0,1-1-1.31h0a2.87,2.87,0,0,1-.19-1.58,2.46,2.46,0,0,1,.73-1.33,4.71,4.71,0,0,1,1.6-1,4.27,4.27,0,0,1,1-.27,5.2,5.2,0,0,1,1.05-.06,5.55,5.55,0,0,1,1.1.17l-.32,1.29a4.33,4.33,0,0,0-1.25-.16,3.12,3.12,0,0,0-1.1.22,2.57,2.57,0,0,0-1.28.94,1.29,1.29,0,0,0-.09,1.24h0a1.07,1.07,0,0,0,.55.62,1.69,1.69,0,0,0,.81.13,9.42,9.42,0,0,0,1.2-.17h.17l.08,0a9.13,9.13,0,0,1,1.52-.15,2.39,2.39,0,0,1,1.21.38,2.56,2.56,0,0,1,.92,1.24v0a2.51,2.51,0,0,1-.6,2.9,5,5,0,0,1-1.66,1A6.31,6.31,0,0,1,1023.17,372.67Z" transform="translate(-960.25 -348.17)"/><path class="cls-3" d="M1025.4,361.48l6.56-1.88.35,1.24-6.56,1.88Zm2.84,0,1.31-.38,2.45,8.54-1.31.38Z" transform="translate(-960.25 -348.17)"/><path class="cls-3" d="M1033.7,359.22,1035,359l1.74,9.51-1.34.25Zm.64-.12,5.47-1,.23,1.27-5.46,1Zm.76,4.16,4.75-.87.23,1.27-4.75.87Zm.75,4.09,5.47-1,.23,1.27-5.47,1Z" transform="translate(-960.25 -348.17)"/><path class="cls-3" d="M1042.54,357.76l1.36-.09.65,9.66-1.36.09Zm.88,4.25,3.3-.22a1.28,1.28,0,0,0,.67-.23,1.24,1.24,0,0,0,.42-.56,1.73,1.73,0,0,0,.11-.8,1.82,1.82,0,0,0-.21-.77,1.27,1.27,0,0,0-.5-.5,1.23,1.23,0,0,0-.7-.14l-3.29.22-.09-1.29,3.25-.22a3.15,3.15,0,0,1,1.49.25,2.44,2.44,0,0,1,1.05.91,2.94,2.94,0,0,1,.44,1.44,2.9,2.9,0,0,1-.25,1.49,2.46,2.46,0,0,1-.92,1.05,3.05,3.05,0,0,1-1.44.44l-3.24.22Zm2.7.81,1.33-.39,2.78,4.52-1.61.11Z" transform="translate(-960.25 -348.17)"/><path class="cls-3" d="M1054.84,357.37l1.36.11-.8,9.65-1.35-.11Zm.24,4.34,3.29.27a1.35,1.35,0,0,0,.7-.13,1.18,1.18,0,0,0,.5-.49,1.88,1.88,0,0,0,.23-.78,1.83,1.83,0,0,0-.1-.79,1.27,1.27,0,0,0-.41-.57,1.26,1.26,0,0,0-.67-.24l-3.29-.27.1-1.29,3.24.27a3,3,0,0,1,1.44.46,2.5,2.5,0,0,1,.9,1.06,3.25,3.25,0,0,1-.24,2.93,2.44,2.44,0,0,1-1.07.89,3,3,0,0,1-1.49.23L1055,363Zm2.54,1.2,1.38-.19,2.08,4.88-1.61-.13Z" transform="translate(-960.25 -348.17)"/><path class="cls-3" d="M1064.5,358.38l1.34.26-1.88,9.49-1.33-.26Zm-1,8.35,5.45,1.08-.25,1.26-5.45-1.07Zm.8-4.08,4.73.94-.25,1.26-4.73-.93Zm.82-4.14,5.45,1.07-.25,1.27-5.45-1.08Z" transform="translate(-960.25 -348.17)"/><path class="cls-3" d="M1080,362.44l1.2.4-3,9.19-1.25-.42,2.27-6.88-.07.43-4,4.45-.9-.3-.58-5.82.24-.51-2.28,6.88-1.25-.42,3-9.18,1.21.4.69,6.95Z" transform="translate(-960.25 -348.17)"/><path class="cls-3" d="M1084.21,364.15l1.22.58-4.16,8.73-1.22-.58Zm-3,7.85,5,2.39-.55,1.16-5-2.39Zm1.78-3.76,4.36,2.08-.56,1.16-4.35-2.07Zm1.82-3.81,5,2.39-.56,1.16-5-2.39Z" transform="translate(-960.25 -348.17)"/><path class="cls-3" d="M1098.17,371.9l1.07.69-5.22,8.14-1.11-.71,3.91-6.1-.18.39-5,3.33-.79-.51.87-5.79.36-.43-3.91,6.1-1.11-.71,5.22-8.15,1.07.68-1.06,6.92Z" transform="translate(-960.25 -348.17)"/><path class="cls-3" d="M1101.93,374.64l1,.87-6.23,7.4-1-.87Zm-4.82,6.95,2,1.69a2.38,2.38,0,0,0,1.4.67,1.36,1.36,0,0,0,1.07-.54l0,0a1.87,1.87,0,0,0,.41-.75,1.11,1.11,0,0,0-.06-.76,1.9,1.9,0,0,0-.59-.75l-2.26-1.91.79-.93,2.26,1.9a1.54,1.54,0,0,0,1.09.46,1.59,1.59,0,0,0,1.34-1.65,1.92,1.92,0,0,0-.75-1.1l-2.11-1.78.81-1,2.3,2a3.51,3.51,0,0,1,1,1.25,2.18,2.18,0,0,1,.14,1.3,3,3,0,0,1-.66,1.27,2.2,2.2,0,0,1-.75.59,1.87,1.87,0,0,1-.94.19.58.58,0,1,0-.51.66,2.08,2.08,0,0,1,0,1.05,2.62,2.62,0,0,1-.51,1h0a2.81,2.81,0,0,1-1.16.84,2.42,2.42,0,0,1-1.36.07,3.4,3.4,0,0,1-1.36-.72l-2.39-2Z" transform="translate(-960.25 -348.17)"/><path class="cls-3" d="M1109.14,381l.93,1-7,6.64-.93-1Zm-5.64,6.24,3.82,4-.94.89-3.82-4Zm3-2.86,3.32,3.51-.94.89-3.31-3.51Zm3.07-2.9,3.82,4-.94.89-3.81-4Z" transform="translate(-960.25 -348.17)"/><path class="cls-3" d="M1115.18,387.6l.82,1.08-7.74,5.82-.82-1.09Zm-2.29,5.75,1.06.9-2.27,4.8-1-1.29Zm-.79-2.7,2,2.64a1.31,1.31,0,0,0,.56.44,1.28,1.28,0,0,0,.7,0,1.93,1.93,0,0,0,.73-.34,1.68,1.68,0,0,0,.53-.61,1.19,1.19,0,0,0,.15-.68,1.33,1.33,0,0,0-.26-.67l-2-2.63,1-.78,2,2.6a3,3,0,0,1,.61,1.38,2.43,2.43,0,0,1-.2,1.38,3.24,3.24,0,0,1-2.34,1.76,2.43,2.43,0,0,1-1.38-.2,3,3,0,0,1-1.16-1l-2-2.59Z" transform="translate(-960.25 -348.17)"/><path class="cls-3" d="M1113.34,401.72a4.66,4.66,0,0,1-.25-1.21,4.94,4.94,0,0,1,.06-1.21l1.32.2a3.77,3.77,0,0,0,0,1.42,4.22,4.22,0,0,0,.53,1.37,2.86,2.86,0,0,0,1.16,1.2,1.23,1.23,0,0,0,1.24-.05h0a1.14,1.14,0,0,0,.55-.63,1.57,1.57,0,0,0,0-.81,8.33,8.33,0,0,0-.32-1.06l0,0v0l0-.1a9.8,9.8,0,0,1-.47-1.55,2.19,2.19,0,0,1,.13-1.28,2.53,2.53,0,0,1,1.15-1.18h0a2.83,2.83,0,0,1,1.53-.43,2.58,2.58,0,0,1,1.43.52,4.62,4.62,0,0,1,1.22,1.43,4.37,4.37,0,0,1,.42.94,5,5,0,0,1,.22,1,6.85,6.85,0,0,1,0,1.11l-1.32-.12a4.75,4.75,0,0,0,0-1.26,2.94,2.94,0,0,0-.38-1,2.64,2.64,0,0,0-1.12-1.13,1.28,1.28,0,0,0-1.24.1h0a1.05,1.05,0,0,0-.53.64,1.66,1.66,0,0,0,0,.83,10.06,10.06,0,0,0,.35,1.15s0,0,0,.05a.43.43,0,0,1,0,.05l0,.07a.19.19,0,0,1,0,.07,7.69,7.69,0,0,1,.38,1.48,2.19,2.19,0,0,1-.19,1.25,2.49,2.49,0,0,1-1.09,1.1h0a2.66,2.66,0,0,1-1.52.4,2.6,2.6,0,0,1-1.44-.56,4.88,4.88,0,0,1-1.26-1.49A6.2,6.2,0,0,1,1113.34,401.72Z" transform="translate(-960.25 -348.17)"/><path class="cls-4" d="M1052.91,487.4a13.24,13.24,0,1,0-13.28-13.3A13.25,13.25,0,0,0,1052.91,487.4Zm.38-.83a11.9,11.9,0,0,1-6.37-1.62l2.32.41c.72.12,1.44.21,2.14.4a19.68,19.68,0,0,1,1.94.72Zm.19-3.76c-.46.66-.94,1.3-1.42,1.95a1.31,1.31,0,0,1-.24.21l-3.61-.63c-.68-.12-1.36-.24-2-.38a.69.69,0,0,1-.39-.22c-.68-1-1.33-2-2-3a.36.36,0,0,1,0-.46c.69-1.06,1.37-2.13,2-3.2.12-.18.22-.19.42-.15,1.44.29,2.89.56,4.33.86a.51.51,0,0,1,.34.23c.87,1.46,1.72,2.94,2.57,4.41A.42.42,0,0,1,1053.48,482.81Zm5.31-1c-1.15.17-2.3.3-3.46.45l0-.12c-.8.32-1.18-.07-1.53-.72-.69-1.31-1.47-2.58-2.23-3.86a.5.5,0,0,1,0-.56q1-1.8,1.92-3.63a.48.48,0,0,1,.42-.29l5.49-.56a.39.39,0,0,1,.3.16c.72,1.18,1.43,2.36,2.12,3.56a.51.51,0,0,1,0,.43q-1.29,2.43-2.62,4.86A.63.63,0,0,1,1058.79,481.79Zm1.49,2.35c-.15-.62-.31-1.24-.44-1.86a.55.55,0,0,1,.08-.32q1.36-2.56,2.76-5.13a.66.66,0,0,1,.23-.24l2.42-1.33C1065.59,477.79,1062.63,483.05,1060.28,484.14Zm-2.59-21.45a12.47,12.47,0,0,1,6.57,6.25l-2.68-1.27a.83.83,0,0,1-.27-.26q-1.72-1.94-3.46-3.86A.77.77,0,0,1,1057.69,462.69Zm-5.15,1.27,3.3-.33a1.68,1.68,0,0,1,1.68.75c1,1.22,2.1,2.38,3.15,3.58a.49.49,0,0,1,.11.41q-.55,1.56-1.17,3.09a.51.51,0,0,1-.37.22c-1.22.14-2.43.26-3.64.38-.53.05-1.06.09-1.58.16a.43.43,0,0,1-.44-.18c-.91-1-1.84-2-2.75-3.06a.46.46,0,0,1-.08-.38c.47-1.46,1-2.92,1.46-4.38A.48.48,0,0,1,1052.54,464Zm-10.06,4.64a24.1,24.1,0,0,1,1.18-2.64,5.44,5.44,0,0,1,1.28-1.3,11.48,11.48,0,0,1,3.68-2.12.8.8,0,0,1,.55,0c.78.36,1.54.76,2.33,1.15-.52,1.54-1,3-1.48,4.39a.57.57,0,0,1-.27.28,27.29,27.29,0,0,0-4.17,2.13.45.45,0,0,1-.36,0c-.87-.49-1.73-1-2.6-1.51A.26.26,0,0,1,1042.48,468.6Zm-1.2,9.82a.58.58,0,0,1-.14-.27,12.15,12.15,0,0,1-.38-6.6,2.41,2.41,0,0,1,.33-.71c.26-.43.55-.85.84-1.3l2,1.16c.34.2.79.33,1,.63s0,.75.1,1.14c.13,1.16.28,2.33.41,3.49a.51.51,0,0,1,0,.35l-2.29,3.59C1042.44,479.38,1041.86,478.91,1041.28,478.42Z" transform="translate(-960.25 -348.17)"/><path class="cls-5" d="M983.16,405.94l-.13-.12h.24A.69.69,0,0,1,983.16,405.94Z" transform="translate(-960.25 -348.17)"/><path class="cls-5" d="M1098.87,379.15l.31,0-.15.19Z" transform="translate(-960.25 -348.17)"/><path class="cls-5" d="M1081.88,369.14l.23,0c0,.07,0,.14-.08.22Z" transform="translate(-960.25 -348.17)"/><path class="cls-3" d="M982.26,466.79l-2.5.72a78,78,0,0,1-2.3-49.34c.53.18.91.32,1.31.43s.73.18,1.18.29A75.64,75.64,0,0,0,982.26,466.79Z" transform="translate(-960.25 -348.17)"/><path class="cls-3" d="M1121.74,471.28l-2.32-1.27a75.1,75.1,0,0,0,2.42-55.05l2.6-.54A78,78,0,0,1,1121.74,471.28Z" transform="translate(-960.25 -348.17)"/><path class="cls-6" d="M1004.48,395.7c.34,1.27.73,2.51,1,3.78.06.28-.26.69-.49,1a62.49,62.49,0,0,0-6.87,10.21,60.06,60.06,0,0,0-6.69,20.79,58.23,58.23,0,0,0,3.86,30.73c8.43,20,23.33,32.46,44.58,36.95a57.73,57.73,0,0,0,39.44-5.36c18-9.36,28.92-24.19,32.44-44.2a58.2,58.2,0,0,0-6.88-39.84c-9.16-16.09-22.92-26.1-41-29.88a59.66,59.66,0,0,0-37.21,4.18,4.24,4.24,0,0,1-2.69.36c-1.42-.3-2.86-.46-4.34-.69,21.05-13.09,57.08-13.48,80.58,13.09A64.53,64.53,0,1,1,1001.59,480C979.4,452.55,985,415.8,1004.48,395.7Z" transform="translate(-960.25 -348.17)"/><path class="cls-7" d="M1051.45,530.72a91.28,91.28,0,1,1,91.36-90.94A91.1,91.1,0,0,1,1051.45,530.72Zm-88.11-91.25a88.19,88.19,0,1,0,88.5-88.2A88,88,0,0,0,963.34,439.47Z" transform="translate(-960.25 -348.17)"/><path class="cls-3" d="M979.85,477.65a2.94,2.94,0,0,1,.5-1.61,4.07,4.07,0,0,1,1.41-1.27l2.24-1.28a4,4,0,0,1,1.81-.56,3,3,0,0,1,1.64.39,3.4,3.4,0,0,1,1.24,1.28,3.28,3.28,0,0,1,.43,1.47,3.12,3.12,0,0,1-.29,1.47,3.69,3.69,0,0,1-1,1.27l-.67-1.18a2.19,2.19,0,0,0,.48-.75,2.07,2.07,0,0,0,.13-.85,1.78,1.78,0,0,0-.24-.79,1.76,1.76,0,0,0-.74-.74,1.8,1.8,0,0,0-1-.2,2.63,2.63,0,0,0-1.14.37L982.43,476a2.57,2.57,0,0,0-.9.78,1.91,1.91,0,0,0-.35,1,1.82,1.82,0,0,0,.27,1,1.78,1.78,0,0,0,.55.61,1.76,1.76,0,0,0,.78.33,2,2,0,0,0,.91,0l.67,1.18a3.6,3.6,0,0,1-1.58.18,3.23,3.23,0,0,1-1.42-.5,3.29,3.29,0,0,1-1-1.12A3.35,3.35,0,0,1,979.85,477.65Z" transform="translate(-960.25 -348.17)"/><path class="cls-3" d="M991,478.7l.78,1.07-7.62,5.56-.78-1.07Zm3.15,4.33.78,1.07-7.62,5.55-.78-1.07Zm-6-1.21,3.09,4.22-1,.74-3.08-4.22Z" transform="translate(-960.25 -348.17)"/><path class="cls-3" d="M997.88,487.44l.77.82-4.58,8.95-1-1,3.82-7.08-7.36,3.24-1-1.05Zm-5.75,2.75,3.36,3.65-.92.85L991.21,491Z" transform="translate(-960.25 -348.17)"/><path class="cls-3" d="M1001.76,491.48l1,.86-6.17,7.13-1-.86Zm-2.3,3.54,2.43,2.1a1.16,1.16,0,0,0,.63.3,1.12,1.12,0,0,0,.67-.09,1.77,1.77,0,0,0,.63-.48,1.86,1.86,0,0,0,.38-.68,1.34,1.34,0,0,0,0-.69,1.27,1.27,0,0,0-.39-.57l-2.43-2.11.82-.95,2.39,2.07a3.08,3.08,0,0,1,.87,1.2,2.39,2.39,0,0,1,.1,1.35,3,3,0,0,1-.68,1.3,2.82,2.82,0,0,1-1.2.86,2.39,2.39,0,0,1-1.35.09,3,3,0,0,1-1.3-.68L998.64,496Zm1.31,2.41,1.19.64-1.17,5-1.19-1Z" transform="translate(-960.25 -348.17)"/><path class="cls-3" d="M1003.68,505.19l-1.06-.79,5.57-7.6,1.06.78Z" transform="translate(-960.25 -348.17)"/><path class="cls-3" d="M1011.69,500.18l1.12.71-4.64,7.3-1.12-.71Zm-1.83-2.08,5.61,3.57-.68,1.06-5.61-3.57Z" transform="translate(-960.25 -348.17)"/><path class="cls-3" d="M1016.56,508.51l-1.74,3.41-1.18-.6,1.75-3.41,0-6.29,1.31.67-.1,4.73,3.77-2.85,1.32.67Z" transform="translate(-960.25 -348.17)"/><path class="cls-3" d="M1024.22,505.88l1.25.45-3.22,8.86-1.25-.45Zm-.82,4.17,4.29,1.56-.43,1.19-4.29-1.57Zm1.43-3.95,5,1.81-.43,1.18-5-1.8Z" transform="translate(-960.25 -348.17)"/><path class="cls-3" d="M1030,517.37a2.86,2.86,0,0,1-.83-1.46,4,4,0,0,1,0-1.87l.65-2.59a3.81,3.81,0,0,1,.84-1.68,2.94,2.94,0,0,1,1.42-.9,3.39,3.39,0,0,1,1.79,0,3.44,3.44,0,0,1,1.58.84,3,3,0,0,1,.84,1.46,4,4,0,0,1,0,1.87l-.65,2.59a3.91,3.91,0,0,1-.83,1.68,3,3,0,0,1-1.43.9,3.39,3.39,0,0,1-1.79,0A3.49,3.49,0,0,1,1030,517.37Zm3-.43a1.76,1.76,0,0,0,.84-.56,2.44,2.44,0,0,0,.51-1l.66-2.68a2.34,2.34,0,0,0,0-1.14,1.82,1.82,0,0,0-.49-.89,2,2,0,0,0-.94-.5,1.91,1.91,0,0,0-1.06,0,1.76,1.76,0,0,0-.84.56,2.44,2.44,0,0,0-.51,1l-.66,2.68a2.46,2.46,0,0,0,0,1.14,1.8,1.8,0,0,0,.48.89,2.19,2.19,0,0,0,2,.5Z" transform="translate(-960.25 -348.17)"/><path class="cls-3" d="M1039,519.26a3,3,0,0,1-1-1.36,3.91,3.91,0,0,1-.17-1.86l.35-2.65a3.87,3.87,0,0,1,.65-1.75,2.94,2.94,0,0,1,1.31-1.06,3.49,3.49,0,0,1,1.78-.2,3.43,3.43,0,0,1,1.66.66,2.91,2.91,0,0,1,1,1.36,3.91,3.91,0,0,1,.17,1.86l-.35,2.65a3.76,3.76,0,0,1-.65,1.75,2.88,2.88,0,0,1-1.31,1.06,3.69,3.69,0,0,1-3.44-.46Zm2.89-.76a1.72,1.72,0,0,0,.77-.65,2.33,2.33,0,0,0,.39-1.08l.36-2.73a2.38,2.38,0,0,0-.09-1.14,1.79,1.79,0,0,0-.59-.83,2.09,2.09,0,0,0-2-.27,1.7,1.7,0,0,0-.78.65,2.45,2.45,0,0,0-.39,1.08l-.36,2.73a2.37,2.37,0,0,0,.1,1.14,1.7,1.7,0,0,0,.58.83,2,2,0,0,0,1,.4A2,2,0,0,0,1041.86,518.5Z" transform="translate(-960.25 -348.17)"/><path class="cls-3" d="M1045.63,511l6.65.23,0,1.26-6.64-.23Zm2.64.86,1.32.05-.3,8.65-1.32,0Z" transform="translate(-960.25 -348.17)"/><path class="cls-3" d="M1053,511.16l1.31-.08.6,9.4-1.31.09Zm1.3,8.13,2.55-.16a2.29,2.29,0,0,0,1.44-.47,1.34,1.34,0,0,0,.39-1.11v0a1.79,1.79,0,0,0-.21-.81,1.17,1.17,0,0,0-.56-.49,2,2,0,0,0-.92-.13l-2.87.19-.08-1.19,2.87-.19a1.58,1.58,0,0,0,1.08-.41,1.29,1.29,0,0,0,.31-1,1.32,1.32,0,0,0-.48-1,1.94,1.94,0,0,0-1.26-.27l-2.69.17-.08-1.22,2.93-.19a3.32,3.32,0,0,1,1.54.22,2,2,0,0,1,1,.82,2.75,2.75,0,0,1,.39,1.34,2.19,2.19,0,0,1-.13.92,1.88,1.88,0,0,1-.53.76.57.57,0,1,0,.08.81,2.07,2.07,0,0,1,.69.75,2.51,2.51,0,0,1,.29,1v0a2.67,2.67,0,0,1-.25,1.37,2.33,2.33,0,0,1-.91,1,3.11,3.11,0,0,1-1.44.41l-3,.2Z" transform="translate(-960.25 -348.17)"/><path class="cls-3" d="M1063.58,510.08l1.11-.19,5.08,8.66-1.41.25-3.91-7-1.23,7.94-1.4.25Zm-.77,6.34,4.88-.87.22,1.23-4.88.88Z" transform="translate(-960.25 -348.17)"/><path class="cls-3" d="M1069.08,509l1.27-.37,2.65,9-1.27.37Zm2.93,7.65,5.17-1.51.36,1.2-5.18,1.52Z" transform="translate(-960.25 -348.17)"/><path class="cls-3" d="M1076,506.84l1.22-.5,3.55,8.74-1.23.5Zm3.68,7.32,5-2,.47,1.17-5,2Z" transform="translate(-960.25 -348.17)"/><path class="cls-3" d="M1090.39,499.72l1.06-.63,4.79,8.12-1.11.65-3.59-6.08.27.33.71,5.77-.79.47-4.64-3.31-.22-.5,3.58,6.08-1.11.66-4.79-8.12,1.07-.63,5.54,4Z" transform="translate(-960.25 -348.17)"/><path class="cls-3" d="M1095,496.43l.89-.69,8.51,5.34-1.13.87-6.71-4.43,2.57,7.62L1098,506Zm2.24,6,3.93-3,.77,1-3.93,3Z" transform="translate(-960.25 -348.17)"/><path class="cls-3" d="M1098.25,493.91l4.86-4.54.86.92-4.86,4.54Zm2.47-1.25,1-.9,5.91,6.32-1,.9Z" transform="translate(-960.25 -348.17)"/><path class="cls-3" d="M1111.27,493.89a2.94,2.94,0,0,1-1.69.05,4,4,0,0,1-1.65-.92l-1.94-1.71a4.11,4.11,0,0,1-1.11-1.54,2.94,2.94,0,0,1-.16-1.68,3.3,3.3,0,0,1,.81-1.57,3.2,3.2,0,0,1,1.25-.89,3.13,3.13,0,0,1,1.49-.2,3.62,3.62,0,0,1,1.51.51l-.9,1a2.14,2.14,0,0,0-.86-.21,2,2,0,0,0-.85.15,1.72,1.72,0,0,0-.67.48,1.87,1.87,0,0,0-.47.94,2,2,0,0,0,.14,1,2.75,2.75,0,0,0,.72,1l1.94,1.71a2.67,2.67,0,0,0,1,.6,1.81,1.81,0,0,0,1,0,1.89,1.89,0,0,0,.88-.57,2,2,0,0,0,.4-.72,2,2,0,0,0,.06-.85,2.14,2.14,0,0,0-.34-.85l.9-1a3.83,3.83,0,0,1,.69,1.44,3.34,3.34,0,0,1,0,1.51,3.21,3.21,0,0,1-.73,1.34A3.34,3.34,0,0,1,1111.27,493.89Z" transform="translate(-960.25 -348.17)"/><path class="cls-3" d="M1108.66,483l.76-1.09,7.72,5.41-.76,1.09Zm3.07-4.39.76-1.08,7.72,5.41-.76,1.08Zm.8,6.1,3-4.29,1,.73-3,4.28Z" transform="translate(-960.25 -348.17)"/><path class="cls-8" d="M1072,443.27c-3.3-1.11-6.31-1.41-9.22.64-7.11,5-14.32,9.9-21.42,14.94a14.32,14.32,0,0,0-3.36,3.58c-2.32,3.42-4.46,7-6.71,10.44-.59.93-1.28,1.79-2.07,2.9-.54-4.2-1.21-8.12-1.53-12.07-.39-5-.64-10-.71-15-.17-10.83,2-21.15,7.22-30.71.14-.26.25-.52.37-.79,0-.06,0-.13,0-.37-.75-.26-1.55-.56-2.36-.81a41.5,41.5,0,0,1-17.29-10,26.64,26.64,0,0,1-7.92-15.56,22.11,22.11,0,0,1,0-2.94c5.32.74,10.59,1.45,15.85,2.19,8,1.13,16,2.19,24,3.42,10.91,1.69,21.79,3.5,32.68,5.28a42.9,42.9,0,0,1,5.27,1.11,16.81,16.81,0,0,1,10.6,8.88c1.12,2.17,2,4.45,2.92,6.71a8.23,8.23,0,0,1,.18,5.92c-1.06,3-2.11,6-3.41,8.95-1.67,3.71-4.07,4.72-8,3.56-1.82-.54-3.59-1.27-5.35-2s-2.63-.59-4,.72c-1,1-2.06,1.88-3.19,2.9,1.35.62,2.59,1.17,3.82,1.75,3.34,1.58,3.71,3.33,1,5.85a59.32,59.32,0,0,1-5.86,4.4q-6.39,4.59-12.85,9.12a17.62,17.62,0,0,1-1.89,1,3.13,3.13,0,0,1,.8-3.75c1-1,2.14-1.92,3.25-2.84q4.13-3.45,8.3-6.9C1071.39,443.65,1071.69,443.47,1072,443.27ZM1011.8,392.6c2.1,4.95,3.82,8,8.71,12.24,7.51,6.53,16.52,8.79,26.21,8.66a57.89,57.89,0,0,0,22.49-4.92,11.64,11.64,0,0,0,4.54-3.7,1.76,1.76,0,0,0-.48-2.79,7,7,0,0,0-2.67-1.07c-9.09-1.36-18.2-2.65-27.31-4-7.75-1.11-15.5-2.25-23.25-3.35C1017.34,393.31,1014.64,393,1011.8,392.6Zm76,28.9c.36-.8.64-1.5,1-2.16a14.82,14.82,0,0,0,1.47-7.74,5.62,5.62,0,0,0-3.61-5.29,23.9,23.9,0,0,0-3.48-1.12c-2.69-.68-3.89.07-4.56,2.77a20,20,0,0,0,4.29,18.47,7.58,7.58,0,0,0,4.19,2.5c1.51.35,3,.26,4-1.22a35.53,35.53,0,0,0,2.37-4.69,19,19,0,0,0,.72-3.26C1092,420.92,1090.23,422.27,1087.79,421.5Zm-44,5.69c0-2.2.06-3.67,0-5.14a10.23,10.23,0,0,0-.53-2.5c-.06-.2-.7-.45-.83-.35a8.18,8.18,0,0,0-2.58,2.23,22.42,22.42,0,0,0-3.13,9.43c-.41,7,.32,13.77,3.33,20.19.69,1.48,1.18,1.74,2.78,1.34a3.89,3.89,0,0,0,1.19-.49c1.1-.74,2.19-1.51,3.25-2.32a2.13,2.13,0,0,0,.93-2.17,23.62,23.62,0,0,0-.87-3.09C1045.18,438.55,1043.31,432.75,1043.77,427.19Zm9.1-10.32c-3.15,0-3.35,0-3.72,3.14a60.36,60.36,0,0,0-.34,9.22,34.81,34.81,0,0,0,2.61,12.14c1,2.35,1.08,2.38,3.61,2.06,3-.39,4.8-2.1,4.89-5a9.27,9.27,0,0,0-.63-3.68,47.21,47.21,0,0,1-3.18-14.88C1056,416.87,1055.85,416.87,1052.87,416.87Zm19.88,12.24a23.64,23.64,0,0,0-.9-2.61c-1.68-3.66-3.53-7.23-4.11-11.29-.09-.67-.44-.82-1-.64a23.71,23.71,0,0,1-2.8.76c-.93.16-1.23.63-1.27,1.52a36.56,36.56,0,0,0,1.36,12.58,26.74,26.74,0,0,0,1.87,4.21,1.1,1.1,0,0,0,1,.39,33.61,33.61,0,0,0,3.83-1.71A3.66,3.66,0,0,0,1072.75,429.11Zm-39.9,12.81-.45.08c-1.14,6.09-1.41,12.17.4,18.34a12.83,12.83,0,0,0,2-2,4.94,4.94,0,0,0,1.23-4.88c-1-3.45-1.87-6.93-2.81-10.4C1033.15,442.66,1033,442.29,1032.85,441.92Z" transform="translate(-960.25 -348.17)"/></svg>